<?xml version="1.0" encoding="UTF-8" standalone="no"?>
<!DOCTYPE svg PUBLIC "-//W3C//DTD SVG 1.1//EN" "http://www.w3.org/Graphics/SVG/1.1/DTD/svg11.dtd">
<svg version="1.1" xmlns="http://www.w3.org/2000/svg" xmlns:xlink="http://www.w3.org/1999/xlink" preserveAspectRatio="xMidYMid meet" viewBox="0 0 500 500" width="500" height="500"><defs><path d="M362.5 25C424.63 25 475 75.37 475 137.5C475 205 475 295 475 362.5C475 424.63 424.63 475 362.5 475C295 475 205 475 137.5 475C75.37 475 25 424.63 25 362.5C25 295 25 205 25 137.5C25 75.37 75.37 25 137.5 25C205 25 295 25 362.5 25Z" id="c2vnKgkTIY"></path><path d="M178.68 361.24L176.36 206.98L222.09 361.24L276.36 361.24L319.77 206.98L319.77 361.24L371.71 361.24L371.71 147.29L295.74 147.29L250 301.55L205.04 147.29L127.52 147.29L127.52 361.24L178.68 361.24Z" id="b11jSWa3g"></path></defs><g><g><g><use xlink:href="#c2vnKgkTIY" opacity="1" fill="#000000" fill-opacity="1"></use></g><g><use xlink:href="#b11jSWa3g" opacity="1" fill="#ffffff" fill-opacity="1"></use></g></g></g></svg>