<?xml version="1.0" encoding="UTF-8" standalone="no"?>
<!DOCTYPE svg PUBLIC "-//W3C//DTD SVG 1.1//EN" "http://www.w3.org/Graphics/SVG/1.1/DTD/svg11.dtd">
<svg version="1.1" xmlns="http://www.w3.org/2000/svg" xmlns:xlink="http://www.w3.org/1999/xlink" preserveAspectRatio="xMidYMid meet" viewBox="0 0 500 500" width="500" height="500"><defs><path d="M450 250C450 360.38 360.38 450 250 450C139.61 450 50 360.38 50 250C50 139.62 139.61 50 250 50C360.38 50 450 139.62 450 250Z" id="bw5rS5Tmx"></path><path d="M270.22 188.64C276.32 194.74 276.32 204.64 270.22 210.74C250.18 230.77 201.14 279.82 181.1 299.85C175 305.95 165.11 305.95 159.01 299.85C154.92 295.76 153.7 294.54 149.61 290.45C143.5 284.35 143.5 274.45 149.61 268.35C169.64 248.32 218.68 199.27 238.72 179.24C244.82 173.14 254.71 173.14 260.81 179.24C264.9 183.33 266.13 184.55 270.22 188.64Z" id="a5D6J8tVzm"></path><path d="M340.98 299.85C334.88 305.95 324.99 305.95 318.89 299.85C298.86 279.82 249.81 230.77 229.78 210.74C223.67 204.64 223.67 194.74 229.78 188.64C233.87 184.55 235.09 183.33 239.18 179.24C245.28 173.14 255.17 173.14 261.27 179.24C281.31 199.27 330.35 248.32 350.39 268.35C356.49 274.45 356.49 284.35 350.39 290.45C346.3 294.54 345.07 295.76 340.98 299.85Z" id="d1R4HnOkLz"></path></defs><g><g><g><use xlink:href="#bw5rS5Tmx" opacity="1" fill="#000000" fill-opacity="1"></use></g><g><use xlink:href="#a5D6J8tVzm" opacity="1" fill="#ffffff" fill-opacity="1"></use></g><g><use xlink:href="#d1R4HnOkLz" opacity="1" fill="#ffffff" fill-opacity="1"></use></g></g></g></svg>