<?xml version="1.0" encoding="UTF-8" standalone="no"?>
<!DOCTYPE svg PUBLIC "-//W3C//DTD SVG 1.1//EN" "http://www.w3.org/Graphics/SVG/1.1/DTD/svg11.dtd">
<svg version="1.1" xmlns="http://www.w3.org/2000/svg" xmlns:xlink="http://www.w3.org/1999/xlink" preserveAspectRatio="xMidYMid meet" viewBox="0 0 500 500" width="500" height="500"><defs><path d="M457.81 257.04C457.81 367.42 368.19 457.04 257.81 457.04C147.42 457.04 57.81 367.42 57.81 257.04C57.81 146.65 147.42 57.04 257.81 57.04C368.19 57.04 457.81 146.65 457.81 257.04Z" id="a42hzwBDKr"></path><path d="M278.03 196.45C284.13 202.56 284.13 212.45 278.03 218.55C258 238.58 208.95 287.63 188.92 307.66C182.81 313.76 172.92 313.76 166.82 307.66C162.73 303.57 161.51 302.35 157.42 298.26C151.32 292.16 151.32 282.27 157.42 276.16C177.45 256.13 226.5 207.09 246.53 187.05C252.63 180.95 262.52 180.95 268.63 187.05C272.72 191.14 273.94 192.36 278.03 196.45Z" id="c1GaQnZR2I"></path><path d="M348.8 307.66C342.69 313.76 332.8 313.76 326.7 307.66C306.67 287.63 257.62 238.58 237.59 218.55C231.49 212.45 231.49 202.56 237.59 196.45C241.68 192.36 242.9 191.14 246.99 187.05C253.09 180.95 262.98 180.95 269.09 187.05C289.12 207.09 338.17 256.13 358.2 276.16C364.3 282.27 364.3 292.16 358.2 298.26C354.11 302.35 352.89 303.57 348.8 307.66Z" id="b2C3JtQgbN"></path></defs><g><g><g><use xlink:href="#a42hzwBDKr" opacity="1" fill="#ffffff" fill-opacity="1"></use></g><g><use xlink:href="#c1GaQnZR2I" opacity="1" fill="#000000" fill-opacity="1"></use></g><g><use xlink:href="#b2C3JtQgbN" opacity="1" fill="#000000" fill-opacity="1"></use></g></g></g></svg>